<?xml version="1.0" standalone="no"?>
<!DOCTYPE svg PUBLIC "-//W3C//DTD SVG 20010904//EN"
 "http://www.w3.org/TR/2001/REC-SVG-20010904/DTD/svg10.dtd">
<svg version="1.0" xmlns="http://www.w3.org/2000/svg"
 width="313.000000pt" height="441.000000pt" viewBox="0 0 313.000000 441.000000"
 preserveAspectRatio="xMidYMid meet">

<g transform="translate(0.000000,441.000000) scale(0.100000,-0.100000)"
fill="#000000" stroke="none">
<path d="M613 4106 c-44 -20 -59 -47 -101 -188 l-37 -123 -58 -5 c-42 -4 -63
-11 -73 -24 -7 -10 -34 -82 -60 -160 -26 -78 -49 -146 -51 -152 -9 -23 28 -44
77 -44 48 0 48 0 54 -37 6 -37 29 -223 116 -943 22 -184 58 -479 80 -655 22
-176 53 -435 70 -575 17 -140 47 -381 65 -535 19 -154 35 -281 35 -282 0 -1
10 -11 22 -23 22 -20 31 -20 803 -20 l782 0 21 23 c19 20 27 63 67 387 66 539
207 1695 265 2175 28 231 53 435 56 453 5 31 6 32 54 32 49 0 86 21 77 44 -2
6 -26 76 -52 155 -26 79 -56 152 -66 162 -12 12 -33 19 -58 19 -22 0 -42 4
-45 9 -3 5 -10 40 -16 78 -12 85 -17 100 -38 108 -9 3 -419 32 -912 65 -492
32 -929 61 -970 64 -53 4 -84 2 -107 -8z m652 -86 c330 -22 755 -50 944 -62
188 -12 349 -27 356 -33 7 -5 16 -38 20 -72 l7 -63 -1026 0 c-564 0 -1026 3
-1026 8 0 4 13 54 30 111 28 98 58 151 84 151 6 0 281 -18 611 -40z m1448
-293 c14 -11 87 -217 87 -245 0 -9 -310 -12 -1245 -12 -1179 0 -1245 1 -1244
18 0 9 17 67 37 127 l37 110 40 6 c22 4 542 7 1156 7 846 1 1121 -2 1132 -11z
m-23 -321 c0 -9 -81 -675 -86 -708 l-6 -38 -1044 0 c-574 0 -1044 2 -1044 4 0
3 -20 168 -45 368 -25 200 -45 366 -45 371 0 4 511 7 1135 7 624 0 1135 -2
1135 -4z m-965 -957 c180 -56 331 -214 380 -399 19 -71 19 -210 0 -283 -51
-195 -219 -361 -420 -412 -186 -47 -381 10 -526 154 -124 124 -176 258 -166
431 19 370 377 619 732 509z m685 -1314 c0 -23 -59 -522 -78 -663 -5 -34 -11
-65 -14 -68 -9 -8 -1521 -5 -1529 4 -6 7 -90 689 -89 730 l0 22 855 0 855 0 0
-25z"/>
<path d="M1569 2222 c-94 -31 -194 -114 -252 -209 -62 -99 -85 -242 -52 -320
24 -58 65 -95 65 -59 0 31 82 175 128 222 27 28 82 74 123 101 84 57 148 122
178 182 27 53 26 65 -6 80 -47 22 -123 23 -184 3z"/>
<path d="M1787 2117 c-49 -108 -103 -167 -227 -248 -30 -20 -75 -57 -100 -82
-42 -44 -120 -160 -120 -179 0 -21 75 -40 134 -35 151 14 314 159 366 326 30
95 24 204 -13 256 -13 17 -16 14 -40 -38z"/>
</g>
</svg>
