<?xml version="1.0" standalone="no"?>
<!DOCTYPE svg PUBLIC "-//W3C//DTD SVG 20010904//EN"
 "http://www.w3.org/TR/2001/REC-SVG-20010904/DTD/svg10.dtd">
<svg version="1.0" xmlns="http://www.w3.org/2000/svg"
 width="282.000000pt" height="441.000000pt" viewBox="0 0 282.000000 441.000000"
 preserveAspectRatio="xMidYMid meet">

<g transform="translate(0.000000,441.000000) scale(0.100000,-0.100000)"
fill="#000000" stroke="none">
<path d="M554 3611 c-33 -20 -42 -39 -74 -151 -12 -41 -24 -83 -26 -92 -4 -13
-15 -18 -38 -18 -59 0 -77 -25 -125 -172 -24 -74 -41 -143 -38 -152 5 -12 19
-16 57 -16 27 0 50 -4 50 -9 0 -4 20 -172 45 -373 24 -200 49 -407 55 -459 5
-52 15 -125 20 -164 5 -38 32 -257 60 -485 119 -977 140 -1142 150 -1160 6
-11 21 -22 33 -25 12 -3 325 -4 696 -3 l674 3 18 25 c13 18 24 72 38 195 30
252 117 966 151 1240 16 132 54 445 85 695 71 585 57 520 109 520 73 0 74 10
21 170 -50 150 -64 170 -121 170 -34 0 -44 16 -44 73 0 15 -6 43 -14 61 l-14
33 -88 7 c-49 4 -156 11 -239 16 -1107 73 -1363 90 -1385 90 -14 0 -39 -9 -56
-19z m551 -71 c1035 -69 1168 -79 1175 -87 4 -4 10 -29 14 -55 l6 -48 -896 0
c-730 0 -895 2 -891 13 3 7 15 49 27 92 25 91 42 115 79 115 14 0 233 -14 486
-30z m1342 -345 c17 -49 32 -98 32 -107 1 -17 -57 -18 -1080 -18 -861 0 -1080
3 -1077 13 3 6 18 50 33 97 15 47 32 91 38 98 7 9 218 12 1016 10 l1006 -3 32
-90z m-63 -227 c-3 -24 -20 -168 -39 -320 -18 -153 -37 -283 -41 -289 -9 -15
-1792 -9 -1803 6 -6 8 -82 595 -81 633 0 9 204 12 985 12 l985 0 -6 -42z
m-849 -783 c186 -49 337 -220 365 -413 43 -304 -193 -572 -503 -572 -295 1
-538 284 -489 573 51 299 337 487 627 412z m615 -1143 c0 -25 -80 -645 -84
-649 -6 -7 -1313 -6 -1324 1 -5 3 -12 31 -15 63 -4 32 -20 168 -37 303 -16
135 -30 255 -30 268 l0 22 745 0 c410 0 745 -4 745 -8z"/>
<path d="M1423 1985 c-194 -60 -341 -307 -279 -469 17 -44 56 -91 56 -67 0 29
70 160 109 203 22 25 67 63 98 83 84 55 152 123 179 180 l24 50 -38 17 c-44
21 -91 22 -149 3z"/>
<path d="M1602 1875 c-40 -82 -89 -135 -177 -195 -82 -56 -170 -147 -196 -205
-17 -36 -17 -41 -3 -52 47 -35 163 -19 246 34 135 84 227 270 198 398 -6 26
-16 56 -23 66 -12 16 -16 12 -45 -46z"/>
</g>
</svg>
