<?xml version="1.0" standalone="no"?>
<!DOCTYPE svg PUBLIC "-//W3C//DTD SVG 20010904//EN"
 "http://www.w3.org/TR/2001/REC-SVG-20010904/DTD/svg10.dtd">
<svg version="1.0" xmlns="http://www.w3.org/2000/svg"
 width="248.000000pt" height="441.000000pt" viewBox="0 0 248.000000 441.000000"
 preserveAspectRatio="xMidYMid meet">

<g transform="translate(0.000000,441.000000) scale(0.100000,-0.100000)"
fill="#000000" stroke="none">
<path d="M513 3150 c-32 -13 -52 -50 -77 -142 -23 -83 -23 -83 -58 -86 -20 -2
-43 -11 -52 -21 -19 -21 -86 -214 -86 -247 0 -24 17 -34 60 -34 35 0 29 31 80
-395 204 -1690 226 -1858 245 -1871 15 -11 127 -14 607 -14 l588 0 14 23 c9
14 29 143 55 357 23 184 48 380 56 435 8 55 24 186 35 290 12 105 48 409 81
677 32 269 59 490 59 493 0 3 18 5 40 5 61 0 64 17 23 145 -39 121 -62 155
-105 155 -29 0 -30 2 -43 80 -11 67 39 59 -737 111 -783 53 -754 51 -785 39z
m747 -96 c388 -26 708 -49 712 -53 3 -3 8 -22 10 -41 l3 -35 -752 -3 c-577 -2
-753 1 -753 10 0 50 48 167 69 168 3 0 323 -20 711 -46z m855 -275 c14 -44 25
-84 25 -90 0 -5 -345 -9 -915 -9 -503 0 -915 3 -915 7 0 4 12 44 27 90 l27 83
863 0 862 0 26 -81z m-59 -196 c-3 -21 -17 -135 -31 -253 -14 -118 -28 -225
-30 -237 l-5 -23 -764 0 -764 0 -6 38 c-3 20 -17 129 -31 242 -14 113 -27 220
-29 238 l-5 32 836 0 835 0 -6 -37z m-681 -664 c124 -47 227 -155 265 -276
113 -366 -262 -688 -605 -519 -126 62 -214 181 -238 320 -38 222 123 450 348
495 65 13 167 4 230 -20z m479 -1003 c-2 -17 -16 -123 -29 -236 -14 -113 -28
-222 -31 -242 l-6 -38 -564 0 c-444 0 -564 3 -564 13 0 6 -14 118 -30 247 -16
129 -30 248 -30 263 l0 28 629 -2 629 -3 -4 -30z"/>
<path d="M1193 1740 c-116 -58 -195 -179 -201 -305 -3 -69 17 -134 43 -142 6
-2 23 26 39 62 36 82 91 145 178 202 99 65 170 165 139 196 -6 6 -39 13 -74
15 -54 3 -70 -1 -124 -28z"/>
<path d="M1407 1676 c-29 -70 -80 -130 -154 -178 -78 -52 -142 -118 -173 -178
-27 -52 -19 -62 54 -68 131 -11 277 114 322 274 19 70 13 140 -14 174 -17 20
-17 20 -35 -24z"/>
</g>
</svg>
